<svg xmlns="http://www.w3.org/2000/svg" xmlns:xlink="http://www.w3.org/1999/xlink" width="2000" zoomAndPan="magnify" viewBox="0 0 1500 1499.999933" height="2000" preserveAspectRatio="xMidYMid meet" version="1.0"><defs><g/></defs><rect x="-150" width="1800" fill="#ffffff" y="-149.999993" height="1799.99992" fill-opacity="1"/><rect x="-150" width="1800" fill="#0b1418" y="-149.999993" height="1799.99992" fill-opacity="1"/><g fill="#d4f6d3" fill-opacity="1"><g transform="translate(309.563767, 1023.824877)"><g><path d="M 181.59375 -6.40625 C 181.59375 -1.601562 154.394531 0.796875 100 0.796875 C 57.332031 0.265625 36 -1.863281 36 -5.59375 L 36 -550.40625 C 36 -558.40625 61.863281 -562.40625 113.59375 -562.40625 C 158.925781 -560.800781 181.59375 -558.132812 181.59375 -554.40625 Z M 181.59375 -6.40625 "/></g></g></g><g fill="#d4f6d3" fill-opacity="1"><g transform="translate(527.164113, 1023.824877)"><g><path d="M 182.40625 -4.796875 C 182.40625 -0.535156 158.003906 1.59375 109.203125 1.59375 C 60.398438 1.59375 36 -0.269531 36 -4 L 36 -396.796875 C 36 -400.535156 60.398438 -402.40625 109.203125 -402.40625 C 158.003906 -402.40625 182.40625 -400.800781 182.40625 -397.59375 Z M 182.40625 -444.796875 C 182.40625 -441.066406 158.003906 -439.203125 109.203125 -439.203125 C 60.398438 -439.203125 36 -440.800781 36 -444 L 36 -559.203125 C 36 -564.535156 60.398438 -567.203125 109.203125 -567.203125 C 158.003906 -567.203125 182.40625 -565.601562 182.40625 -562.40625 Z M 182.40625 -444.796875 "/></g></g></g><g fill="#d4f6d3" fill-opacity="1"><g transform="translate(745.564402, 1023.824877)"><g><path d="M 181.59375 -6.40625 C 181.59375 -1.601562 154.394531 0.796875 100 0.796875 C 57.332031 0.265625 36 -1.863281 36 -5.59375 L 36 -550.40625 C 36 -558.40625 61.863281 -562.40625 113.59375 -562.40625 C 158.925781 -560.800781 181.59375 -558.132812 181.59375 -554.40625 Z M 181.59375 -6.40625 "/></g></g></g><g fill="#d4f6d3" fill-opacity="1"><g transform="translate(963.164725, 1023.824877)"><g><path d="M 182.40625 -4.796875 C 182.40625 -0.535156 158.003906 1.59375 109.203125 1.59375 C 60.398438 1.59375 36 -0.269531 36 -4 L 36 -396.796875 C 36 -400.535156 60.398438 -402.40625 109.203125 -402.40625 C 158.003906 -402.40625 182.40625 -400.800781 182.40625 -397.59375 Z M 182.40625 -444.796875 C 182.40625 -441.066406 158.003906 -439.203125 109.203125 -439.203125 C 60.398438 -439.203125 36 -440.800781 36 -444 L 36 -559.203125 C 36 -564.535156 60.398438 -567.203125 109.203125 -567.203125 C 158.003906 -567.203125 182.40625 -565.601562 182.40625 -562.40625 Z M 182.40625 -444.796875 "/></g></g></g><g fill="#000000" fill-opacity="1"><g transform="translate(745.566425, 753.751259)"><g><path d="M 0.421875 0 L 0.421875 -10.375 L 2.5625 -10.375 L 2.5625 0 Z M 0.421875 0 "/></g></g></g><g fill="#000000" fill-opacity="1"><g transform="translate(748.542427, 753.751259)"><g><path d="M 0.40625 -9.375 L 0.40625 -10.84375 L 2.515625 -10.84375 L 2.515625 -9.375 Z M 0.40625 0 L 0.40625 -8.78125 L 2.515625 -8.78125 L 2.515625 0 Z M 0.40625 0 "/></g></g></g><g fill="#000000" fill-opacity="1"><g transform="translate(751.458427, 753.751259)"><g><path d="M 0.421875 0 L 0.421875 -10.375 L 2.5625 -10.375 L 2.5625 0 Z M 0.421875 0 "/></g></g></g></svg>